<svg width="31" height="31" viewBox="0 0 31 31" fill="none" xmlns="http://www.w3.org/2000/svg">
<path d="M24.5417 3.875H6.45833C5.0375 3.875 3.875 5.0375 3.875 6.45833V24.5417C3.875 25.9625 5.0375 27.125 6.45833 27.125H24.5417C25.9625 27.125 27.125 25.9625 27.125 24.5417V6.45833C27.125 5.0375 25.9625 3.875 24.5417 3.875ZM24.5417 24.5417H6.45833V6.45833H24.5417V24.5417Z" fill="white"/>
<path d="M9.04163 15.5H11.625V21.9583H9.04163V15.5ZM19.375 9.04167H21.9583V21.9583H19.375V9.04167ZM14.2083 18.0833H16.7916V21.9583H14.2083V18.0833ZM14.2083 12.9167H16.7916V15.5H14.2083V12.9167Z" fill="white"/>
<path d="M9 20.4583H11.5833V26.9167H9V20.4583ZM19.3333 14H21.9167V26.9167H19.3333V14ZM14.1667 23.0417H16.75V26.9167H14.1667V23.0417ZM14.1667 17.875H16.75V20.4583H14.1667V17.875Z" fill="white"/>
</svg>
