<svg width="48" height="48" viewBox="0 0 48 48" fill="none" xmlns="http://www.w3.org/2000/svg">
<path d="M27.6601 38.0001C27.3613 38.0011 27.0661 37.9351 26.7961 37.8071C26.5262 37.679 26.2883 37.4921 26.1001 37.2601L16.4401 25.2601C16.1459 24.9022 15.9851 24.4533 15.9851 23.9901C15.9851 23.5268 16.1459 23.0779 16.4401 22.7201L26.4401 10.7201C26.7796 10.3116 27.2674 10.0548 27.7962 10.006C28.3251 9.95726 28.8517 10.1206 29.2601 10.4601C29.6685 10.7995 29.9254 11.2874 29.9741 11.8162C30.0229 12.3451 29.8596 12.8716 29.5201 13.2801L20.5801 24.0001L29.2201 34.7201C29.4647 35.0136 29.62 35.3711 29.6678 35.7502C29.7155 36.1293 29.6537 36.5142 29.4896 36.8592C29.3255 37.2043 29.0659 37.4951 28.7417 37.6973C28.4175 37.8995 28.0422 38.0045 27.6601 38.0001Z" fill="white"/>
</svg>
