<svg width="44" height="44" viewBox="0 0 44 44" fill="none" xmlns="http://www.w3.org/2000/svg">
<path d="M33.2 8.6H31.8V19.8C31.8 20.57 31.17 21.2 30.4 21.2H13.6V22.6C13.6 24.14 14.86 25.4 16.4 25.4H30.4L36 31V11.4C36 9.86 34.74 8.6 33.2 8.6ZM29 15.6V5.8C29 4.26 27.74 3 26.2 3H10.8C9.26 3 8 4.26 8 5.8V24L13.6 18.4H26.2C27.74 18.4 29 17.14 29 15.6Z" fill="white"/>
<path d="M11.2891 35.416V36.32H8.96106V37.752H10.7451V38.64H8.96106V41H7.84106V35.416H11.2891ZM14.6753 41.056C14.1526 41.056 13.6726 40.9333 13.2353 40.688C12.7979 40.4427 12.4513 40.104 12.1953 39.672C11.9393 39.2347 11.8113 38.7413 11.8113 38.192C11.8113 37.648 11.9393 37.16 12.1953 36.728C12.4513 36.2907 12.7979 35.9493 13.2353 35.704C13.6726 35.4587 14.1526 35.336 14.6753 35.336C15.2033 35.336 15.6833 35.4587 16.1153 35.704C16.5526 35.9493 16.8966 36.2907 17.1473 36.728C17.4033 37.16 17.5313 37.648 17.5313 38.192C17.5313 38.7413 17.4033 39.2347 17.1473 39.672C16.8966 40.104 16.5526 40.4427 16.1153 40.688C15.6779 40.9333 15.1979 41.056 14.6753 41.056ZM14.6753 40.056C15.0113 40.056 15.3073 39.9813 15.5633 39.832C15.8193 39.6773 16.0193 39.4587 16.1633 39.176C16.3073 38.8933 16.3793 38.5653 16.3793 38.192C16.3793 37.8187 16.3073 37.4933 16.1633 37.216C16.0193 36.9333 15.8193 36.7173 15.5633 36.568C15.3073 36.4187 15.0113 36.344 14.6753 36.344C14.3393 36.344 14.0406 36.4187 13.7793 36.568C13.5233 36.7173 13.3233 36.9333 13.1793 37.216C13.0353 37.4933 12.9633 37.8187 12.9633 38.192C12.9633 38.5653 13.0353 38.8933 13.1793 39.176C13.3233 39.4587 13.5233 39.6773 13.7793 39.832C14.0406 39.9813 14.3393 40.056 14.6753 40.056ZM21.2445 41L20.0125 38.824H19.4845V41H18.3645V35.416H20.4605C20.8925 35.416 21.2605 35.4933 21.5645 35.648C21.8685 35.7973 22.0952 36.0027 22.2445 36.264C22.3992 36.52 22.4765 36.808 22.4765 37.128C22.4765 37.496 22.3698 37.8293 22.1565 38.128C21.9432 38.4213 21.6258 38.624 21.2045 38.736L22.5405 41H21.2445ZM19.4845 37.984H20.4205C20.7245 37.984 20.9512 37.912 21.1005 37.768C21.2498 37.6187 21.3245 37.4133 21.3245 37.152C21.3245 36.896 21.2498 36.6987 21.1005 36.56C20.9512 36.416 20.7245 36.344 20.4205 36.344H19.4845V37.984ZM24.5935 35.416V38.872C24.5935 39.2507 24.6922 39.5413 24.8895 39.744C25.0868 39.9413 25.3642 40.04 25.7215 40.04C26.0842 40.04 26.3642 39.9413 26.5615 39.744C26.7588 39.5413 26.8575 39.2507 26.8575 38.872V35.416H27.9855V38.864C27.9855 39.3387 27.8815 39.7413 27.6735 40.072C27.4708 40.3973 27.1962 40.6427 26.8495 40.808C26.5082 40.9733 26.1268 41.056 25.7055 41.056C25.2895 41.056 24.9108 40.9733 24.5695 40.808C24.2335 40.6427 23.9668 40.3973 23.7695 40.072C23.5722 39.7413 23.4735 39.3387 23.4735 38.864V35.416H24.5935ZM35.1556 35.416V41H34.0356V37.368L32.5396 41H31.6916L30.1876 37.368V41H29.0676V35.416H30.3396L32.1156 39.568L33.8916 35.416H35.1556Z" fill="white"/>
</svg>
