<svg width="27" height="25" viewBox="0 0 27 25" fill="none" xmlns="http://www.w3.org/2000/svg">
<path d="M26.3438 4.95627C25.9249 3.98639 25.3209 3.10749 24.5656 2.36877C23.8098 1.62785 22.9186 1.03906 21.9406 0.634397C20.9265 0.213125 19.8388 -0.00250558 18.7406 2.19652e-05C17.2 2.19652e-05 15.6969 0.421897 14.3906 1.21877C14.0781 1.4094 13.7813 1.61877 13.5 1.8469C13.2188 1.61877 12.9219 1.4094 12.6094 1.21877C11.3031 0.421897 9.8 2.19652e-05 8.25938 2.19652e-05C7.15 2.19652e-05 6.075 0.212522 5.05938 0.634397C4.07812 1.04065 3.19375 1.62502 2.43438 2.36877C1.67811 3.10665 1.07399 3.98576 0.65625 4.95627C0.221875 5.96565 0 7.03752 0 8.14065C0 9.18127 0.2125 10.2656 0.634375 11.3688C0.9875 12.2906 1.49375 13.2469 2.14063 14.2125C3.16563 15.7406 4.575 17.3344 6.325 18.95C9.225 21.6281 12.0969 23.4781 12.2188 23.5531L12.9594 24.0281C13.2875 24.2375 13.7094 24.2375 14.0375 24.0281L14.7781 23.5531C14.9 23.475 17.7688 21.6281 20.6719 18.95C22.4219 17.3344 23.8313 15.7406 24.8563 14.2125C25.5031 13.2469 26.0125 12.2906 26.3625 11.3688C26.7844 10.2656 26.9969 9.18127 26.9969 8.14065C27 7.03752 26.7781 5.96565 26.3438 4.95627Z" fill="#FA4D00"/>
</svg>
