<svg width="44" height="49" viewBox="0 0 44 49" fill="none" xmlns="http://www.w3.org/2000/svg">
<g filter="url(#filter0_d_64_1039)">
<path d="M13.25 3C11.8576 3 10.5223 3.55312 9.53769 4.53769C8.55312 5.52226 8 6.85761 8 8.25V25.75C8 27.1424 8.55312 28.4777 9.53769 29.4623C10.5223 30.4469 11.8576 31 13.25 31H30.75C32.1424 31 33.4777 30.4469 34.4623 29.4623C35.4469 28.4777 36 27.1424 36 25.75V8.25C36 6.85761 35.4469 5.52226 34.4623 4.53769C33.4777 3.55312 32.1424 3 30.75 3L13.25 3ZM17.625 10C17.625 10.6962 17.3484 11.3639 16.8562 11.8562C16.3639 12.3484 15.6962 12.625 15 12.625C14.3038 12.625 13.6361 12.3484 13.1438 11.8562C12.6516 11.3639 12.375 10.6962 12.375 10C12.375 9.30381 12.6516 8.63613 13.1438 8.14384C13.6361 7.65156 14.3038 7.375 15 7.375C15.6962 7.375 16.3639 7.65156 16.8562 8.14384C17.3484 8.63613 17.625 9.30381 17.625 10V10ZM31.625 10C31.625 10.6962 31.3484 11.3639 30.8562 11.8562C30.3639 12.3484 29.6962 12.625 29 12.625C28.3038 12.625 27.6361 12.3484 27.1438 11.8562C26.6516 11.3639 26.375 10.6962 26.375 10C26.375 9.30381 26.6516 8.63613 27.1438 8.14384C27.6361 7.65156 28.3038 7.375 29 7.375C29.6962 7.375 30.3639 7.65156 30.8562 8.14384C31.3484 8.63613 31.625 9.30381 31.625 10V10ZM29 26.625C28.3038 26.625 27.6361 26.3484 27.1438 25.8562C26.6516 25.3639 26.375 24.6962 26.375 24C26.375 23.3038 26.6516 22.6361 27.1438 22.1438C27.6361 21.6516 28.3038 21.375 29 21.375C29.6962 21.375 30.3639 21.6516 30.8562 22.1438C31.3484 22.6361 31.625 23.3038 31.625 24C31.625 24.6962 31.3484 25.3639 30.8562 25.8562C30.3639 26.3484 29.6962 26.625 29 26.625ZM17.625 24C17.625 24.6962 17.3484 25.3639 16.8562 25.8562C16.3639 26.3484 15.6962 26.625 15 26.625C14.3038 26.625 13.6361 26.3484 13.1438 25.8562C12.6516 25.3639 12.375 24.6962 12.375 24C12.375 23.3038 12.6516 22.6361 13.1438 22.1438C13.6361 21.6516 14.3038 21.375 15 21.375C15.6962 21.375 16.3639 21.6516 16.8562 22.1438C17.3484 22.6361 17.625 23.3038 17.625 24ZM22 19.625C21.3038 19.625 20.6361 19.3484 20.1438 18.8562C19.6516 18.3639 19.375 17.6962 19.375 17C19.375 16.3038 19.6516 15.6361 20.1438 15.1438C20.6361 14.6516 21.3038 14.375 22 14.375C22.6962 14.375 23.3639 14.6516 23.8562 15.1438C24.3484 15.6361 24.625 16.3038 24.625 17C24.625 17.6962 24.3484 18.3639 23.8562 18.8562C23.3639 19.3484 22.6962 19.625 22 19.625Z" fill="white"/>
<path d="M16.9482 37.144C16.9482 37.4427 16.8762 37.7227 16.7322 37.984C16.5936 38.2453 16.3722 38.456 16.0682 38.616C15.7696 38.776 15.3909 38.856 14.9322 38.856H13.9962V41H12.8762V35.416H14.9322C15.3642 35.416 15.7322 35.4907 16.0362 35.64C16.3402 35.7893 16.5669 35.9947 16.7162 36.256C16.8709 36.5173 16.9482 36.8133 16.9482 37.144ZM14.8842 37.952C15.1936 37.952 15.4229 37.8827 15.5722 37.744C15.7216 37.6 15.7962 37.4 15.7962 37.144C15.7962 36.6 15.4922 36.328 14.8842 36.328H13.9962V37.952H14.8842ZM18.8634 40.112H20.7034V41H17.7434V35.416H18.8634V40.112ZM24.8393 39.936H22.6153L22.2473 41H21.0713L23.0793 35.408H24.3833L26.3913 41H25.2073L24.8393 39.936ZM24.5353 39.04L23.7273 36.704L22.9193 39.04H24.5353ZM31.5818 35.416L29.6938 39.056V41H28.5738V39.056L26.6778 35.416H27.9418L29.1418 37.968L30.3338 35.416H31.5818Z" fill="white"/>
</g>
<defs>
<filter id="filter0_d_64_1039" x="-4" y="0" width="52" height="52" filterUnits="userSpaceOnUse" color-interpolation-filters="sRGB">
<feFlood flood-opacity="0" result="BackgroundImageFix"/>
<feColorMatrix in="SourceAlpha" type="matrix" values="0 0 0 0 0 0 0 0 0 0 0 0 0 0 0 0 0 0 127 0" result="hardAlpha"/>
<feOffset dy="4"/>
<feGaussianBlur stdDeviation="2"/>
<feComposite in2="hardAlpha" operator="out"/>
<feColorMatrix type="matrix" values="0 0 0 0 0 0 0 0 0 0 0 0 0 0 0 0 0 0 0.25 0"/>
<feBlend mode="normal" in2="BackgroundImageFix" result="effect1_dropShadow_64_1039"/>
<feBlend mode="normal" in="SourceGraphic" in2="effect1_dropShadow_64_1039" result="shape"/>
</filter>
</defs>
</svg>
