<svg width="40" height="40" viewBox="0 0 40 40" fill="none" xmlns="http://www.w3.org/2000/svg">
<path fill-rule="evenodd" clip-rule="evenodd" d="M26.6668 15.0002C26.6668 16.7683 25.9645 18.464 24.7142 19.7142C23.464 20.9645 21.7683 21.6668 20.0002 21.6668C18.2321 21.6668 16.5364 20.9645 15.2861 19.7142C14.0359 18.464 13.3335 16.7683 13.3335 15.0002C13.3335 13.2321 14.0359 11.5364 15.2861 10.2861C16.5364 9.03587 18.2321 8.3335 20.0002 8.3335C21.7683 8.3335 23.464 9.03587 24.7142 10.2861C25.9645 11.5364 26.6668 13.2321 26.6668 15.0002V15.0002ZM23.3335 15.0002C23.3335 15.8842 22.9823 16.7321 22.3572 17.3572C21.7321 17.9823 20.8842 18.3335 20.0002 18.3335C19.1161 18.3335 18.2683 17.9823 17.6431 17.3572C17.018 16.7321 16.6668 15.8842 16.6668 15.0002C16.6668 14.1161 17.018 13.2683 17.6431 12.6431C18.2683 12.018 19.1161 11.6668 20.0002 11.6668C20.8842 11.6668 21.7321 12.018 22.3572 12.6431C22.9823 13.2683 23.3335 14.1161 23.3335 15.0002V15.0002Z" fill="white"/>
<path fill-rule="evenodd" clip-rule="evenodd" d="M20.0001 1.66675C9.87508 1.66675 1.66675 9.87508 1.66675 20.0001C1.66675 30.1251 9.87508 38.3334 20.0001 38.3334C30.1251 38.3334 38.3334 30.1251 38.3334 20.0001C38.3334 9.87508 30.1251 1.66675 20.0001 1.66675ZM5.00008 20.0001C5.00008 23.4834 6.18841 26.6901 8.18008 29.2367C9.5788 27.3999 11.3832 25.9113 13.4525 24.8873C15.5217 23.8632 17.7997 23.3314 20.1084 23.3334C22.3873 23.3313 24.6366 23.8493 26.685 24.8481C28.7333 25.8468 30.5267 27.3 31.9284 29.0967C33.3725 27.2028 34.3448 24.9921 34.7649 22.6477C35.185 20.3034 35.0408 17.8926 34.3442 15.6151C33.6477 13.3375 32.4188 11.2585 30.7592 9.55014C29.0997 7.84179 27.0572 6.55318 24.8007 5.79093C22.5443 5.02868 20.1387 4.8147 17.7832 5.1667C15.4276 5.51871 13.1897 6.42657 11.2547 7.81517C9.31966 9.20377 7.7431 11.0332 6.65546 13.1521C5.56783 15.271 5.00038 17.6184 5.00008 20.0001V20.0001ZM20.0001 35.0001C16.5567 35.0053 13.2172 33.8207 10.5467 31.6468C11.6216 30.108 13.0523 28.8516 14.7171 27.9846C16.3818 27.1175 18.2314 26.6654 20.1084 26.6667C21.962 26.6653 23.7892 27.106 25.4383 27.9525C27.0874 28.7989 28.5107 30.0265 29.5901 31.5334C26.8989 33.7779 23.5044 35.005 20.0001 35.0001V35.0001Z" fill="white"/>
</svg>
