<svg width="30" height="32" viewBox="0 0 30 32" fill="none" xmlns="http://www.w3.org/2000/svg">
<path d="M27.4441 14.4004C27.8796 14.4004 28.3 14.5443 28.6255 14.8047C28.9509 15.0651 29.1589 15.4239 29.2098 15.8131L29.2223 16.0003V25.6001C29.2223 27.2421 28.5209 28.8212 27.2632 30.0109C26.0054 31.2006 24.2876 31.9099 22.465 31.992L22.1094 32H7.89072C6.06583 32 4.31075 31.3689 2.9885 30.2373C1.66624 29.1056 0.877968 27.56 0.786723 25.9201L0.777832 25.6001V16.0003C0.778335 15.5925 0.951882 15.2003 1.26302 14.9038C1.57415 14.6072 1.99939 14.4288 2.45184 14.4049C2.9043 14.381 3.34982 14.5134 3.69737 14.7752C4.04493 15.0369 4.2683 15.4082 4.32183 15.8131L4.33428 16.0003V25.6001C4.33444 26.4072 4.67351 27.1843 5.28356 27.776C5.8936 28.3676 6.72957 28.7299 7.62399 28.7905L7.89072 28.8001H22.1094C23.0063 28.7999 23.8701 28.4948 24.5276 27.9459C25.1851 27.3971 25.5879 26.6449 25.6552 25.8401L25.6658 25.6001V16.0003C25.6658 15.576 25.8532 15.169 26.1867 14.869C26.5201 14.5689 26.9724 14.4004 27.4441 14.4004V14.4004ZM4.84818 8.4645L13.734 0.469469C14.0399 0.193757 14.4472 0.027976 14.8794 0.00323172C15.3115 -0.0215125 15.7389 0.0964806 16.0812 0.335072L16.2484 0.467869L25.1448 8.4629C25.4643 8.75056 25.6501 9.1369 25.6644 9.54339C25.6787 9.94988 25.5204 10.346 25.2216 10.6512C24.9229 10.9565 24.5063 11.1479 24.0563 11.1866C23.6064 11.2253 23.1569 11.1084 22.7993 10.8596L22.6322 10.7269L16.7747 5.46456V21.2082C16.7747 21.6001 16.6148 21.9783 16.3253 22.2712C16.0359 22.564 15.6371 22.7511 15.2045 22.797L14.9965 22.8082C14.561 22.8081 14.1406 22.6643 13.8151 22.4039C13.4896 22.1434 13.2817 21.7846 13.2307 21.3954L13.2183 21.2082V5.45656L7.36259 10.7269C7.05639 11.0023 6.649 11.1678 6.21685 11.1923C5.78469 11.2167 5.35747 11.0984 5.01534 10.8596L4.84818 10.7269C4.54201 10.4513 4.35809 10.0848 4.33092 9.69596C4.30374 9.30713 4.43519 8.92273 4.70059 8.6149L4.84818 8.4629L13.734 0.469469L4.84996 8.4629L4.84818 8.4645Z" fill="black"/>
</svg>
