<svg width="32" height="32" viewBox="0 0 32 32" fill="none" xmlns="http://www.w3.org/2000/svg">
<path d="M25.0504 14.8366C25.3671 14.8367 25.6728 14.9413 25.9096 15.1307C26.1463 15.3201 26.2975 15.5811 26.3346 15.8641L26.3436 16.0003V22.9819C26.3436 24.1761 25.8335 25.3245 24.9188 26.1898C24.0041 27.055 22.7548 27.5709 21.4292 27.6306L21.1706 27.6364H10.8297C9.50256 27.6364 8.22614 27.1774 7.2645 26.3544C6.30285 25.5314 5.72956 24.4073 5.6632 23.2147L5.65674 22.9819V16.0003C5.6571 15.7037 5.78332 15.4184 6.0096 15.2028C6.23588 14.9871 6.54514 14.8573 6.8742 14.8399C7.20326 14.8226 7.52727 14.9189 7.78004 15.1092C8.03281 15.2996 8.19526 15.5696 8.23419 15.8641L8.24324 16.0003V22.9819C8.24336 23.5689 8.48996 24.1341 8.93363 24.5643C9.3773 24.9946 9.98528 25.2582 10.6358 25.3022L10.8297 25.3092H21.1706C21.8229 25.309 22.4511 25.0872 22.9293 24.688C23.4075 24.2888 23.7004 23.7417 23.7493 23.1565L23.7571 22.9819V16.0003C23.7571 15.6916 23.8934 15.3957 24.1359 15.1775C24.3784 14.9592 24.7074 14.8366 25.0504 14.8366V14.8366ZM8.61699 10.5196L15.0794 4.70508C15.3019 4.50456 15.5981 4.38399 15.9124 4.366C16.2267 4.348 16.5375 4.43382 16.7865 4.60734L16.908 4.70392L23.3782 10.5185C23.6106 10.7277 23.7457 11.0087 23.7561 11.3043C23.7664 11.5999 23.6513 11.888 23.4341 12.11C23.2168 12.332 22.9138 12.4712 22.5865 12.4994C22.2593 12.5275 21.9324 12.4425 21.6724 12.2616L21.5508 12.165L17.2908 8.33788V19.7878C17.2908 20.0728 17.1745 20.3479 16.964 20.5609C16.7535 20.7739 16.4635 20.9099 16.1489 20.9433L15.9976 20.9514C15.6808 20.9514 15.3751 20.8468 15.1384 20.6574C14.9017 20.468 14.7504 20.207 14.7134 19.924L14.7043 19.7878V8.33206L10.4457 12.165C10.223 12.3653 9.92668 12.4857 9.61239 12.5035C9.29809 12.5213 8.98739 12.4352 8.73856 12.2616L8.61699 12.165C8.39433 11.9646 8.26056 11.698 8.2408 11.4153C8.22104 11.1325 8.31663 10.8529 8.50965 10.629L8.61699 10.5185L15.0794 4.70508L8.61829 10.5185L8.61699 10.5196Z" fill="#FA4D00"/>
</svg>
