<svg width="44" height="44" viewBox="0 0 44 44" fill="none" xmlns="http://www.w3.org/2000/svg">
<path d="M34.4441 20.4004C34.8796 20.4004 35.3 20.5443 35.6255 20.8047C35.9509 21.0651 36.1589 21.4239 36.2098 21.8131L36.2223 22.0003V31.6001C36.2223 33.2421 35.5209 34.8212 34.2632 36.0109C33.0054 37.2006 31.2876 37.9099 29.465 37.992L29.1094 38H14.8907C13.0658 38 11.3108 37.3689 9.9885 36.2373C8.66624 35.1056 7.87797 33.56 7.78672 31.9201L7.77783 31.6001V22.0003C7.77833 21.5925 7.95188 21.2003 8.26302 20.9038C8.57415 20.6072 8.99939 20.4288 9.45184 20.4049C9.9043 20.381 10.3498 20.5134 10.6974 20.7752C11.0449 21.0369 11.2683 21.4082 11.3218 21.8131L11.3343 22.0003V31.6001C11.3344 32.4072 11.6735 33.1843 12.2836 33.776C12.8936 34.3676 13.7296 34.7299 14.624 34.7905L14.8907 34.8001H29.1094C30.0063 34.7999 30.8701 34.4948 31.5276 33.9459C32.1851 33.3971 32.5879 32.6449 32.6552 31.8401L32.6658 31.6001V22.0003C32.6658 21.576 32.8532 21.169 33.1867 20.869C33.5201 20.5689 33.9724 20.4004 34.4441 20.4004V20.4004ZM11.8482 14.4645L20.734 6.46947C21.0399 6.19376 21.4472 6.02798 21.8794 6.00323C22.3115 5.97849 22.7389 6.09648 23.0812 6.33507L23.2484 6.46787L32.1448 14.4629C32.4643 14.7506 32.6501 15.1369 32.6644 15.5434C32.6787 15.9499 32.5204 16.346 32.2216 16.6512C31.9229 16.9565 31.5063 17.1479 31.0563 17.1866C30.6064 17.2253 30.1569 17.1084 29.7993 16.8596L29.6322 16.7269L23.7747 11.4646V27.2082C23.7747 27.6001 23.6148 27.9783 23.3253 28.2712C23.0359 28.564 22.6371 28.7511 22.2045 28.797L21.9965 28.8082C21.561 28.8081 21.1406 28.6643 20.8151 28.4039C20.4896 28.1434 20.2817 27.7846 20.2307 27.3954L20.2183 27.2082V11.4566L14.3626 16.7269C14.0564 17.0023 13.649 17.1678 13.2168 17.1923C12.7847 17.2167 12.3575 17.0984 12.0153 16.8596L11.8482 16.7269C11.542 16.4513 11.3581 16.0848 11.3309 15.696C11.3037 15.3071 11.4352 14.9227 11.7006 14.6149L11.8482 14.4629L20.734 6.46947L11.85 14.4629L11.8482 14.4645Z" fill="black"/>
</svg>
