<svg width="44" height="44" viewBox="0 0 44 44" fill="none" xmlns="http://www.w3.org/2000/svg">
<path d="M11.9019 41.056C11.5125 41.056 11.1605 40.9893 10.8459 40.856C10.5365 40.7227 10.2912 40.5307 10.1099 40.28C9.92854 40.0293 9.83521 39.7333 9.82988 39.392H11.0299C11.0459 39.6213 11.1259 39.8027 11.2699 39.936C11.4192 40.0693 11.6219 40.136 11.8779 40.136C12.1392 40.136 12.3445 40.0747 12.4939 39.952C12.6432 39.824 12.7179 39.6587 12.7179 39.456C12.7179 39.2907 12.6672 39.1547 12.5659 39.048C12.4645 38.9413 12.3365 38.8587 12.1819 38.8C12.0325 38.736 11.8245 38.6667 11.5579 38.592C11.1952 38.4853 10.8992 38.3813 10.6699 38.28C10.4459 38.1733 10.2512 38.016 10.0859 37.808C9.92588 37.5947 9.84588 37.312 9.84588 36.96C9.84588 36.6293 9.92854 36.3413 10.0939 36.096C10.2592 35.8507 10.4912 35.664 10.7899 35.536C11.0885 35.4027 11.4299 35.336 11.8139 35.336C12.3899 35.336 12.8565 35.4773 13.2139 35.76C13.5765 36.0373 13.7765 36.4267 13.8139 36.928H12.5819C12.5712 36.736 12.4885 36.5787 12.3339 36.456C12.1845 36.328 11.9845 36.264 11.7339 36.264C11.5152 36.264 11.3392 36.32 11.2059 36.432C11.0779 36.544 11.0139 36.7067 11.0139 36.92C11.0139 37.0693 11.0619 37.1947 11.1579 37.296C11.2592 37.392 11.3819 37.472 11.5259 37.536C11.6752 37.5947 11.8832 37.664 12.1499 37.744C12.5125 37.8507 12.8085 37.9573 13.0379 38.064C13.2672 38.1707 13.4645 38.3307 13.6299 38.544C13.7952 38.7573 13.8779 39.0373 13.8779 39.384C13.8779 39.6827 13.8005 39.96 13.6459 40.216C13.4912 40.472 13.2645 40.6773 12.9659 40.832C12.6672 40.9813 12.3125 41.056 11.9019 41.056ZM18.6489 35.416V36.32H17.1609V41H16.0409V36.32H14.5529V35.416H18.6489ZM22.0581 41.056C21.5354 41.056 21.0554 40.9333 20.6181 40.688C20.1807 40.4427 19.8341 40.104 19.5781 39.672C19.3221 39.2347 19.1941 38.7413 19.1941 38.192C19.1941 37.648 19.3221 37.16 19.5781 36.728C19.8341 36.2907 20.1807 35.9493 20.6181 35.704C21.0554 35.4587 21.5354 35.336 22.0581 35.336C22.5861 35.336 23.0661 35.4587 23.4981 35.704C23.9354 35.9493 24.2794 36.2907 24.5301 36.728C24.7861 37.16 24.9141 37.648 24.9141 38.192C24.9141 38.7413 24.7861 39.2347 24.5301 39.672C24.2794 40.104 23.9354 40.4427 23.4981 40.688C23.0607 40.9333 22.5807 41.056 22.0581 41.056ZM22.0581 40.056C22.3941 40.056 22.6901 39.9813 22.9461 39.832C23.2021 39.6773 23.4021 39.4587 23.5461 39.176C23.6901 38.8933 23.7621 38.5653 23.7621 38.192C23.7621 37.8187 23.6901 37.4933 23.5461 37.216C23.4021 36.9333 23.2021 36.7173 22.9461 36.568C22.6901 36.4187 22.3941 36.344 22.0581 36.344C21.7221 36.344 21.4234 36.4187 21.1621 36.568C20.9061 36.7173 20.7061 36.9333 20.5621 37.216C20.4181 37.4933 20.3461 37.8187 20.3461 38.192C20.3461 38.5653 20.4181 38.8933 20.5621 39.176C20.7061 39.4587 20.9061 39.6773 21.1621 39.832C21.4234 39.9813 21.7221 40.056 22.0581 40.056ZM28.6273 41L27.3953 38.824H26.8673V41H25.7473V35.416H27.8433C28.2753 35.416 28.6433 35.4933 28.9473 35.648C29.2513 35.7973 29.478 36.0027 29.6273 36.264C29.782 36.52 29.8593 36.808 29.8593 37.128C29.8593 37.496 29.7526 37.8293 29.5393 38.128C29.326 38.4213 29.0086 38.624 28.5873 38.736L29.9233 41H28.6273ZM26.8673 37.984H27.8033C28.1073 37.984 28.334 37.912 28.4833 37.768C28.6326 37.6187 28.7073 37.4133 28.7073 37.152C28.7073 36.896 28.6326 36.6987 28.4833 36.56C28.334 36.416 28.1073 36.344 27.8033 36.344H26.8673V37.984ZM31.9923 36.32V37.72H33.8723V38.608H31.9923V40.088H34.1123V41H30.8723V35.408H34.1123V36.32H31.9923Z" fill="white"/>
<path d="M20.5938 13.875V19.3125H15.1562V13.875H20.5938ZM20.5938 26.5625V21.125H15.1562V26.5625H20.5938ZM27.8438 13.875V19.3125H22.4062V13.875H27.8438ZM27.8438 26.5625V21.125H22.4062V26.5625H27.8438ZM16.0625 8.4375V5.71875C16.0625 4.99769 16.3489 4.30617 16.8588 3.7963C17.3687 3.28644 18.0602 3 18.7812 3H24.2188C24.9398 3 25.6313 3.28644 26.1412 3.7963C26.6511 4.30617 26.9375 4.99769 26.9375 5.71875V8.4375H35.0938C35.3341 8.4375 35.5646 8.53298 35.7346 8.70293C35.9045 8.87289 36 9.1034 36 9.34375V27.4688C36 28.6705 35.5226 29.8231 34.6728 30.6728C33.8231 31.5226 32.6705 32 31.4688 32H11.5312C10.3295 32 9.17695 31.5226 8.32717 30.6728C7.4774 29.8231 7 28.6705 7 27.4688V9.34375C7 9.1034 7.09548 8.87289 7.26543 8.70293C7.43539 8.53298 7.6659 8.4375 7.90625 8.4375H16.0625ZM17.875 5.71875V8.4375H25.125V5.71875C25.125 5.4784 25.0295 5.24789 24.8596 5.07793C24.6896 4.90798 24.4591 4.8125 24.2188 4.8125H18.7812C18.5409 4.8125 18.3104 4.90798 18.1404 5.07793C17.9705 5.24789 17.875 5.4784 17.875 5.71875ZM8.8125 27.4688C8.8125 28.1898 9.09894 28.8813 9.6088 29.3912C10.1187 29.9011 10.8102 30.1875 11.5312 30.1875H31.4688C32.1898 30.1875 32.8813 29.9011 33.3912 29.3912C33.9011 28.8813 34.1875 28.1898 34.1875 27.4688V10.25H8.8125V27.4688Z" fill="white"/>
</svg>
