<svg width="40" height="40" viewBox="0 0 40 40" fill="none" xmlns="http://www.w3.org/2000/svg">
<path d="M14.4399 26.2249C14.8483 26.5132 15.3349 26.6666 15.8333 26.6649V26.6582C16.3037 26.659 16.764 26.5217 17.1572 26.2634C17.5503 26.0051 17.859 25.637 18.0449 25.2049L19.0666 22.0982C19.3027 21.3945 19.6991 20.7553 20.2247 20.2312C20.7503 19.7071 21.3906 19.3124 22.0949 19.0782L25.0583 18.1149C25.5364 17.948 25.9497 17.6344 26.239 17.2187C26.5283 16.803 26.6789 16.3065 26.6693 15.8002C26.6597 15.2938 26.4904 14.8034 26.1855 14.399C25.8806 13.9946 25.4558 13.6968 24.9716 13.5482L22.0466 12.5982C21.339 12.3629 20.696 11.9657 20.1689 11.4383C19.6417 10.9108 19.2449 10.2677 19.0099 9.5599L18.0466 6.59823C17.8786 6.12652 17.5678 5.71886 17.1575 5.43188C16.7472 5.14491 16.2576 4.99287 15.7569 4.9969C15.2562 5.00094 14.7691 5.16083 14.3635 5.45438C13.9578 5.74793 13.6537 6.16054 13.4933 6.6349L12.5216 9.62156C12.2873 10.3087 11.9 10.9336 11.389 11.4492C10.878 11.9649 10.2566 12.3578 9.5716 12.5982L6.60993 13.5482C6.13459 13.7127 5.72272 14.022 5.43221 14.4326C5.1417 14.8432 4.98715 15.3346 4.99028 15.8376C4.99341 16.3405 5.15405 16.8299 5.44964 17.2369C5.74523 17.6439 6.16091 17.948 6.63827 18.1066L9.5616 19.0549C10.2691 19.292 10.9117 19.6904 11.4387 20.2186C11.9658 20.7467 12.3627 21.3902 12.5983 22.0982L13.5616 25.0566C13.7266 25.5282 14.0333 25.9349 14.4399 26.2232V26.2249ZM13.8166 19.1416C13.6307 18.8987 13.4286 18.6687 13.2116 18.4532H13.2166C12.4118 17.6478 11.4302 17.0412 10.3499 16.6816L7.68327 15.8332L10.3683 14.9599C11.4308 14.592 12.3945 13.9847 13.1849 13.1849C13.9719 12.38 14.5652 11.4065 14.9199 10.3382L15.7783 7.70156L16.6383 10.3466C16.9971 11.4249 17.6031 12.4044 18.4079 13.2068C19.2127 14.0093 20.1939 14.6125 21.2733 14.9682L23.9733 15.8382L21.3233 16.6966C20.246 17.0548 19.2672 17.6594 18.4646 18.4623C17.662 19.2651 17.0578 20.2442 16.6999 21.3216L15.8416 23.9582L14.9833 21.3166C14.7212 20.5299 14.3266 19.7937 13.8166 19.1399V19.1416ZM27.2183 34.6366C26.9005 34.4098 26.6615 34.0892 26.5349 33.7199L25.9883 32.0432C25.8832 31.7236 25.7047 31.433 25.4671 31.1948C25.2295 30.9566 24.9393 30.7774 24.6199 30.6716L22.9683 30.1332C22.5902 30.0057 22.2614 29.7631 22.028 29.4394C21.7946 29.1158 21.6683 28.7273 21.6666 28.3282C21.6669 27.9318 21.7908 27.5453 22.0211 27.2227C22.2515 26.9 22.5767 26.6573 22.9516 26.5282L24.6283 25.9849C24.9401 25.8741 25.2225 25.6933 25.4536 25.4564C25.6847 25.2194 25.8585 24.9327 25.9616 24.6182L26.5016 22.9666C26.6286 22.5928 26.8686 22.2678 27.1884 22.0364C27.5082 21.805 27.892 21.6786 28.2867 21.6748C28.6814 21.6709 29.0676 21.7898 29.3918 22.0149C29.716 22.2401 29.9623 22.5604 30.0966 22.9316L30.6449 24.6216C30.7523 24.9384 30.9316 25.226 31.1687 25.462C31.4058 25.6979 31.6943 25.8758 32.0116 25.9816L33.6649 26.5199C34.0461 26.6391 34.38 26.8752 34.6194 27.1949C34.8588 27.5145 34.9915 27.9014 34.9987 28.3006C35.0059 28.6999 34.8872 29.0913 34.6595 29.4193C34.4317 29.7474 34.1065 29.9954 33.7299 30.1282L32.0399 30.6766C31.7222 30.7838 31.4336 30.9634 31.197 31.2011C30.9605 31.4389 30.7823 31.7283 30.6766 32.0466L30.1399 33.6949C30.0099 34.0782 29.7633 34.4116 29.4316 34.6449C29.108 34.8749 28.7206 34.9978 28.3236 34.9963C27.9266 34.9948 27.5401 34.869 27.2183 34.6366V34.6366ZM25.5016 28.3316C26.1565 28.5645 26.7508 28.9413 27.2408 29.4342C27.7309 29.9272 28.1042 30.5237 28.3333 31.1799C28.5648 30.5265 28.9393 29.933 29.4295 29.4428C29.9197 28.9526 30.5132 28.5781 31.1666 28.3466C30.5074 28.1154 29.9082 27.7398 29.4128 27.2473C28.9174 26.7547 28.5383 26.1577 28.3033 25.4999C28.0732 26.1491 27.7026 26.7395 27.218 27.229C26.7334 27.7185 26.1468 28.0949 25.4999 28.3316H25.5016Z" fill="white"/>
</svg>
