<svg width="29" height="29" viewBox="0 0 29 29" fill="none" xmlns="http://www.w3.org/2000/svg">
<path d="M9.79602 20.6179C10.1487 20.8662 10.5697 20.999 11.001 20.9979C11.4323 20.9968 11.8526 20.862 12.204 20.6119C12.56 20.3519 12.83 19.9919 12.978 19.5759L13.872 16.8299C14.1009 16.1413 14.487 15.5155 14.9997 15.0021C15.5125 14.4886 16.1377 14.1017 16.826 13.8719L19.608 12.9719C20.0193 12.823 20.3736 12.5488 20.6208 12.1879C20.868 11.827 20.9957 11.3976 20.986 10.9603C20.9763 10.523 20.8296 10.0997 20.5666 9.75016C20.3036 9.40061 19.9375 9.1424 19.52 9.0119L16.77 8.1159C16.081 7.88744 15.4547 7.50151 14.9409 6.98873C14.4271 6.47596 14.0399 5.85046 13.81 5.1619L12.906 2.3859C12.7605 1.97693 12.491 1.62349 12.1353 1.37476C11.7795 1.12603 11.355 0.994384 10.9209 0.998124C10.4868 1.00186 10.0647 1.14081 9.71325 1.39563C9.3618 1.65045 9.09851 2.00848 8.96002 2.4199L8.04602 5.2199C7.8171 5.88992 7.43889 6.49914 6.93996 7.00153C6.44103 7.50393 5.83444 7.88635 5.16602 8.1199L2.38602 9.0139C1.97721 9.15977 1.62396 9.42931 1.37532 9.78509C1.12667 10.1409 0.994964 10.5652 0.998482 10.9993C1.002 11.4333 1.14057 11.8555 1.39495 12.2072C1.64933 12.5589 2.0069 12.8227 2.41802 12.9619L5.16602 13.8519C5.85794 14.082 6.48629 14.4711 7.00068 14.9879C7.51507 15.5047 7.90118 16.1349 8.12802 16.8279L9.03202 19.6099C9.17602 20.0179 9.44402 20.3699 9.79602 20.6179ZM22.07 28.7019C22.2746 28.8457 22.5098 28.94 22.7571 28.9772C23.0044 29.0144 23.257 28.9936 23.4949 28.9164C23.7327 28.8392 23.9494 28.7077 24.1276 28.5323C24.3059 28.3569 24.4409 28.1425 24.522 27.9059L25.018 26.3819C25.1248 26.0658 25.3027 25.7784 25.538 25.5419C25.774 25.3019 26.062 25.1259 26.378 25.0219L27.922 24.5179C28.2406 24.4079 28.5164 24.2002 28.7099 23.9242C28.9035 23.6483 29.0049 23.3183 28.9998 22.9812C28.9947 22.6442 28.8833 22.3174 28.6815 22.0475C28.4797 21.7775 28.1978 21.5782 27.876 21.4779L26.348 20.9779C26.0317 20.8728 25.7442 20.6955 25.5082 20.4602C25.2722 20.2249 25.0941 19.9379 24.988 19.6219L24.484 18.0759C24.3758 17.7579 24.1702 17.4821 23.8965 17.2874C23.6227 17.0928 23.2947 16.9893 22.9588 16.9915C22.6229 16.9937 22.2963 17.1015 22.0251 17.2998C21.7539 17.498 21.552 17.7765 21.448 18.0959L20.954 19.6199C20.8522 19.9336 20.6791 20.2194 20.4484 20.455C20.2177 20.6906 19.9355 20.8696 19.624 20.9779L18.078 21.4819C17.7599 21.5897 17.4838 21.7949 17.2888 22.0684C17.0938 22.3419 16.9898 22.6698 16.9916 23.0057C16.9934 23.3415 17.1008 23.6683 17.2987 23.9398C17.4965 24.2112 17.7748 24.4134 18.094 24.5179L19.62 25.0119C19.94 25.1199 20.228 25.2979 20.464 25.5339C20.702 25.7719 20.878 26.0599 20.98 26.3779L21.486 27.9259C21.5956 28.2388 21.7997 28.51 22.07 28.7019Z" fill="#FA4D00"/>
</svg>
