<svg width="44" height="44" viewBox="0 0 44 44" fill="none" xmlns="http://www.w3.org/2000/svg">
<path d="M11.7692 31H9.61538C9.18696 31 8.77608 30.8525 8.47314 30.5899C8.17019 30.3274 8 29.9713 8 29.6V21.2C8 20.8287 8.17019 20.4726 8.47314 20.2101C8.77608 19.9475 9.18696 19.8 9.61538 19.8H11.7692C12.1977 19.8 12.6085 19.9475 12.9115 20.2101C13.2144 20.4726 13.3846 20.8287 13.3846 21.2V29.6C13.3846 29.9713 13.2144 30.3274 12.9115 30.5899C12.6085 30.8525 12.1977 31 11.7692 31V31ZM26.8462 31H24.6923C24.2639 31 23.853 30.8525 23.5501 30.5899C23.2471 30.3274 23.0769 29.9713 23.0769 29.6V15.6C23.0769 15.2287 23.2471 14.8726 23.5501 14.6101C23.853 14.3475 24.2639 14.2 24.6923 14.2H26.8462C27.2746 14.2 27.6855 14.3475 27.9884 14.6101C28.2913 14.8726 28.4615 15.2287 28.4615 15.6V29.6C28.4615 29.9713 28.2913 30.3274 27.9884 30.5899C27.6855 30.8525 27.2746 31 26.8462 31V31ZM34.3846 31H32.2308C31.8023 31 31.3915 30.8525 31.0885 30.5899C30.7856 30.3274 30.6154 29.9713 30.6154 29.6V9.06667C30.6154 8.69536 30.7856 8.33927 31.0885 8.07672C31.3915 7.81417 31.8023 7.66667 32.2308 7.66667H34.3846C34.813 7.66667 35.2239 7.81417 35.5269 8.07672C35.8298 8.33927 36 8.69536 36 9.06667V29.6C36 29.9713 35.8298 30.3274 35.5269 30.5899C35.2239 30.8525 34.813 31 34.3846 31V31ZM19.3077 31H17.1538C16.7254 31 16.3145 30.8525 16.0116 30.5899C15.7087 30.3274 15.5385 29.9713 15.5385 29.6V4.4C15.5385 4.0287 15.7087 3.6726 16.0116 3.41005C16.3145 3.1475 16.7254 3 17.1538 3H19.3077C19.7361 3 20.147 3.1475 20.4499 3.41005C20.7529 3.6726 20.9231 4.0287 20.9231 4.4V29.6C20.9231 29.9713 20.7529 30.3274 20.4499 30.5899C20.147 30.8525 19.7361 31 19.3077 31V31Z" fill="#FA4D00"/>
<path d="M11.6245 41.056C11.2352 41.056 10.8832 40.9893 10.5685 40.856C10.2592 40.7227 10.0139 40.5307 9.83253 40.28C9.6512 40.0293 9.55786 39.7333 9.55253 39.392H10.7525C10.7685 39.6213 10.8485 39.8027 10.9925 39.936C11.1419 40.0693 11.3445 40.136 11.6005 40.136C11.8619 40.136 12.0672 40.0747 12.2165 39.952C12.3659 39.824 12.4405 39.6587 12.4405 39.456C12.4405 39.2907 12.3899 39.1547 12.2885 39.048C12.1872 38.9413 12.0592 38.8587 11.9045 38.8C11.7552 38.736 11.5472 38.6667 11.2805 38.592C10.9179 38.4853 10.6219 38.3813 10.3925 38.28C10.1685 38.1733 9.97386 38.016 9.80853 37.808C9.64853 37.5947 9.56853 37.312 9.56853 36.96C9.56853 36.6293 9.6512 36.3413 9.81653 36.096C9.98186 35.8507 10.2139 35.664 10.5125 35.536C10.8112 35.4027 11.1525 35.336 11.5365 35.336C12.1125 35.336 12.5792 35.4773 12.9365 35.76C13.2992 36.0373 13.4992 36.4267 13.5365 36.928H12.3045C12.2939 36.736 12.2112 36.5787 12.0565 36.456C11.9072 36.328 11.7072 36.264 11.4565 36.264C11.2379 36.264 11.0619 36.32 10.9285 36.432C10.8005 36.544 10.7365 36.7067 10.7365 36.92C10.7365 37.0693 10.7845 37.1947 10.8805 37.296C10.9819 37.392 11.1045 37.472 11.2485 37.536C11.3979 37.5947 11.6059 37.664 11.8725 37.744C12.2352 37.8507 12.5312 37.9573 12.7605 38.064C12.9899 38.1707 13.1872 38.3307 13.3525 38.544C13.5179 38.7573 13.6005 39.0373 13.6005 39.384C13.6005 39.6827 13.5232 39.96 13.3685 40.216C13.2139 40.472 12.9872 40.6773 12.6885 40.832C12.3899 40.9813 12.0352 41.056 11.6245 41.056ZM18.3715 35.416V36.32H16.8835V41H15.7635V36.32H14.2755V35.416H18.3715ZM22.6127 39.936H20.3887L20.0207 41H18.8447L20.8527 35.408H22.1567L24.1647 41H22.9807L22.6127 39.936ZM22.3087 39.04L21.5007 36.704L20.6927 39.04H22.3087ZM28.7153 35.416V36.32H27.2273V41H26.1073V36.32H24.6193V35.416H28.7153ZM31.4605 41.056C31.0711 41.056 30.7191 40.9893 30.4045 40.856C30.0951 40.7227 29.8498 40.5307 29.6685 40.28C29.4871 40.0293 29.3938 39.7333 29.3885 39.392H30.5885C30.6045 39.6213 30.6845 39.8027 30.8285 39.936C30.9778 40.0693 31.1805 40.136 31.4365 40.136C31.6978 40.136 31.9031 40.0747 32.0525 39.952C32.2018 39.824 32.2765 39.6587 32.2765 39.456C32.2765 39.2907 32.2258 39.1547 32.1245 39.048C32.0231 38.9413 31.8951 38.8587 31.7405 38.8C31.5911 38.736 31.3831 38.6667 31.1165 38.592C30.7538 38.4853 30.4578 38.3813 30.2285 38.28C30.0045 38.1733 29.8098 38.016 29.6445 37.808C29.4845 37.5947 29.4045 37.312 29.4045 36.96C29.4045 36.6293 29.4871 36.3413 29.6525 36.096C29.8178 35.8507 30.0498 35.664 30.3485 35.536C30.6471 35.4027 30.9885 35.336 31.3725 35.336C31.9485 35.336 32.4151 35.4773 32.7725 35.76C33.1351 36.0373 33.3351 36.4267 33.3725 36.928H32.1405C32.1298 36.736 32.0471 36.5787 31.8925 36.456C31.7431 36.328 31.5431 36.264 31.2925 36.264C31.0738 36.264 30.8978 36.32 30.7645 36.432C30.6365 36.544 30.5725 36.7067 30.5725 36.92C30.5725 37.0693 30.6205 37.1947 30.7165 37.296C30.8178 37.392 30.9405 37.472 31.0845 37.536C31.2338 37.5947 31.4418 37.664 31.7085 37.744C32.0711 37.8507 32.3671 37.9573 32.5965 38.064C32.8258 38.1707 33.0231 38.3307 33.1885 38.544C33.3538 38.7573 33.4365 39.0373 33.4365 39.384C33.4365 39.6827 33.3591 39.96 33.2045 40.216C33.0498 40.472 32.8231 40.6773 32.5245 40.832C32.2258 40.9813 31.8711 41.056 31.4605 41.056Z" fill="#FA4D00"/>
</svg>
