<svg width="44" height="44" viewBox="0 0 44 44" fill="none" xmlns="http://www.w3.org/2000/svg">
<path d="M22 3C14.2688 3 8 9.26875 8 17C8 24.7312 14.2688 31 22 31C29.7312 31 36 24.7312 36 17C36 9.26875 29.7312 3 22 3ZM26.5031 17.2156L19.6781 22.1812C19.6407 22.2081 19.5966 22.2242 19.5507 22.2276C19.5047 22.2311 19.4587 22.2218 19.4177 22.2008C19.3767 22.1798 19.3422 22.1479 19.3182 22.1087C19.2941 22.0694 19.2813 22.0242 19.2812 21.9781V12.0531C19.2811 12.007 19.2937 11.9616 19.3178 11.9222C19.3418 11.8828 19.3762 11.8508 19.4173 11.8298C19.4584 11.8087 19.5046 11.7995 19.5506 11.8031C19.5966 11.8066 19.6408 11.8229 19.6781 11.85L26.5031 16.8125C26.5354 16.8353 26.5617 16.8655 26.5798 16.9006C26.598 16.9357 26.6075 16.9746 26.6075 17.0141C26.6075 17.0536 26.598 17.0925 26.5798 17.1275C26.5617 17.1626 26.5354 17.1928 26.5031 17.2156V17.2156Z" fill="white"/>
<path d="M14.309 35.416L12.749 41H11.429L10.381 37.024L9.28497 41L7.97297 41.008L6.46897 35.416H7.66897L8.65297 39.752L9.78897 35.416H11.037L12.109 39.728L13.101 35.416H14.309ZM18.4643 39.936H16.2403L15.8723 41H14.6963L16.7043 35.408H18.0083L20.0163 41H18.8323L18.4643 39.936ZM18.1603 39.04L17.3523 36.704L16.5443 39.04H18.1603ZM24.5668 35.416V36.32H23.0788V41H21.9588V36.32H20.4708V35.416H24.5668ZM25.112 38.2C25.112 37.6507 25.2347 37.16 25.48 36.728C25.7307 36.2907 26.0694 35.952 26.496 35.712C26.928 35.4667 27.4107 35.344 27.944 35.344C28.568 35.344 29.1147 35.504 29.584 35.824C30.0534 36.144 30.3814 36.5867 30.568 37.152H29.28C29.152 36.8853 28.9707 36.6853 28.736 36.552C28.5067 36.4187 28.24 36.352 27.936 36.352C27.6107 36.352 27.32 36.4293 27.064 36.584C26.8134 36.7333 26.616 36.9467 26.472 37.224C26.3334 37.5013 26.264 37.8267 26.264 38.2C26.264 38.568 26.3334 38.8933 26.472 39.176C26.616 39.4533 26.8134 39.6693 27.064 39.824C27.32 39.9733 27.6107 40.048 27.936 40.048C28.24 40.048 28.5067 39.9813 28.736 39.848C28.9707 39.7093 29.152 39.5067 29.28 39.24H30.568C30.3814 39.8107 30.0534 40.256 29.584 40.576C29.12 40.8907 28.5734 41.048 27.944 41.048C27.4107 41.048 26.928 40.928 26.496 40.688C26.0694 40.4427 25.7307 40.104 25.48 39.672C25.2347 39.24 25.112 38.7493 25.112 38.2ZM36.1567 35.416V41H35.0367V38.624H32.6447V41H31.5247V35.416H32.6447V37.712H35.0367V35.416H36.1567Z" fill="white"/>
</svg>
