<svg width="44" height="44" viewBox="0 0 44 44" fill="none" xmlns="http://www.w3.org/2000/svg">
<path d="M35.4205 16.7706L22.6986 3.30664C22.607 3.20944 22.4982 3.13232 22.3784 3.0797C22.2586 3.02708 22.1302 3 22.0006 3C21.8709 3 21.7425 3.02708 21.6227 3.0797C21.503 3.13232 21.3942 3.20944 21.3026 3.30664L8.58065 16.7706C8.21002 17.1631 8 17.6963 8 18.2524C8 19.4071 8.88643 20.3459 9.9767 20.3459H11.3171V29.9532C11.3171 30.5322 11.7588 31 12.3055 31H20.0239V23.6727H23.4831V31H31.6957C32.2423 31 32.684 30.5322 32.684 29.9532V20.3459H34.0245C34.5495 20.3459 35.053 20.1268 35.4236 19.731C36.1926 18.9132 36.1927 17.5884 35.4205 16.7706V16.7706Z" fill="white"/>
<path d="M15.4496 35.416V41H14.3296V38.624H11.9376V41H10.8176V35.416H11.9376V37.712H14.3296V35.416H15.4496ZM19.144 41.056C18.6213 41.056 18.1413 40.9333 17.704 40.688C17.2667 40.4427 16.92 40.104 16.664 39.672C16.408 39.2347 16.28 38.7413 16.28 38.192C16.28 37.648 16.408 37.16 16.664 36.728C16.92 36.2907 17.2667 35.9493 17.704 35.704C18.1413 35.4587 18.6213 35.336 19.144 35.336C19.672 35.336 20.152 35.4587 20.584 35.704C21.0213 35.9493 21.3653 36.2907 21.616 36.728C21.872 37.16 22 37.648 22 38.192C22 38.7413 21.872 39.2347 21.616 39.672C21.3653 40.104 21.0213 40.4427 20.584 40.688C20.1467 40.9333 19.6667 41.056 19.144 41.056ZM19.144 40.056C19.48 40.056 19.776 39.9813 20.032 39.832C20.288 39.6773 20.488 39.4587 20.632 39.176C20.776 38.8933 20.848 38.5653 20.848 38.192C20.848 37.8187 20.776 37.4933 20.632 37.216C20.488 36.9333 20.288 36.7173 20.032 36.568C19.776 36.4187 19.48 36.344 19.144 36.344C18.808 36.344 18.5093 36.4187 18.248 36.568C17.992 36.7173 17.792 36.9333 17.648 37.216C17.504 37.4933 17.432 37.8187 17.432 38.192C17.432 38.5653 17.504 38.8933 17.648 39.176C17.792 39.4587 17.992 39.6773 18.248 39.832C18.5093 39.9813 18.808 40.056 19.144 40.056ZM28.9213 35.416V41H27.8013V37.368L26.3053 41H25.4573L23.9533 37.368V41H22.8333V35.416H24.1053L25.8813 39.568L27.6573 35.416H28.9213ZM31.1486 36.32V37.72H33.0286V38.608H31.1486V40.088H33.2686V41H30.0286V35.408H33.2686V36.32H31.1486Z" fill="white"/>
</svg>
